<svg id="svg" version="1.1" xmlns="http://www.w3.org/2000/svg" xmlns:xlink="http://www.w3.org/1999/xlink" width="400" height="60.29526029526029" viewBox="0, 0, 400,60.29526029526029"><g id="svgg"><path id="path0" d="M136.116 4.620 C 136.496 4.667,136.622 4.755,136.556 4.927 C 136.500 5.074,136.567 5.167,136.732 5.167 C 136.879 5.167,137.000 5.242,137.000 5.333 C 137.000 5.425,136.756 5.501,136.458 5.502 C 135.218 5.507,134.641 6.070,135.667 6.275 C 135.942 6.330,136.167 6.441,136.167 6.521 C 136.167 6.601,136.373 6.668,136.625 6.670 C 136.894 6.671,137.246 6.844,137.475 7.086 C 137.691 7.313,137.926 7.462,137.998 7.418 C 138.070 7.373,138.222 7.449,138.335 7.585 C 138.448 7.722,138.609 7.833,138.691 7.833 C 138.774 7.833,139.171 8.152,139.573 8.542 C 139.975 8.931,140.601 9.517,140.963 9.844 C 141.888 10.678,142.444 12.333,141.799 12.333 C 141.726 12.333,141.667 12.488,141.667 12.677 C 141.667 12.865,141.592 12.973,141.500 12.917 C 141.408 12.860,141.333 12.968,141.333 13.157 C 141.333 13.346,141.271 13.500,141.195 13.500 C 141.119 13.500,140.950 13.704,140.820 13.953 C 140.690 14.203,140.471 14.532,140.333 14.686 C 140.089 14.959,139.719 15.407,138.904 16.417 C 138.682 16.692,138.500 17.010,138.500 17.125 C 138.500 17.240,138.425 17.333,138.333 17.333 C 138.242 17.333,138.167 17.411,138.167 17.507 C 138.167 17.681,138.041 17.857,137.417 18.556 C 136.743 19.311,136.000 20.318,136.000 20.476 C 136.000 20.566,135.941 20.664,135.869 20.694 C 135.661 20.783,134.833 22.282,134.833 22.571 C 134.833 22.715,134.758 22.833,134.667 22.833 C 134.575 22.833,134.500 22.983,134.500 23.167 C 134.500 23.350,134.443 23.500,134.374 23.500 C 134.305 23.500,134.143 23.744,134.015 24.042 C 133.886 24.340,133.657 24.771,133.505 25.000 C 132.814 26.044,132.636 28.551,132.823 34.627 C 132.869 36.158,133.310 37.074,133.841 36.745 C 133.916 36.699,134.024 36.737,134.082 36.831 C 134.139 36.924,134.710 37.000,135.351 37.000 C 136.598 37.000,136.861 37.145,137.542 38.202 C 137.962 38.854,137.961 41.242,137.542 41.487 C 137.381 41.580,137.308 41.659,137.379 41.662 C 137.524 41.667,137.072 42.415,136.626 42.906 C 136.465 43.084,136.333 43.284,136.333 43.351 C 136.333 43.419,135.997 43.798,135.586 44.195 C 135.175 44.592,134.837 44.992,134.836 45.083 C 134.834 45.175,134.608 45.512,134.333 45.833 C 134.059 46.154,133.834 46.510,133.834 46.625 C 133.834 46.740,133.777 46.833,133.707 46.833 C 133.564 46.833,133.231 47.538,132.986 48.360 C 132.714 49.272,132.761 52.839,133.055 53.541 C 133.325 54.187,134.039 54.667,134.732 54.667 C 134.960 54.667,135.193 54.742,135.250 54.833 C 135.315 54.938,137.030 55.000,139.843 55.000 L 144.333 55.000 144.333 45.583 L 144.333 36.167 147.323 36.167 C 149.137 36.167,150.354 36.232,150.417 36.333 C 150.473 36.425,150.811 36.500,151.167 36.500 C 151.523 36.500,151.856 36.569,151.909 36.654 C 151.961 36.738,152.218 36.855,152.479 36.912 C 152.741 36.970,153.096 37.144,153.269 37.300 C 153.442 37.456,153.808 37.696,154.083 37.833 C 154.358 37.971,154.770 38.252,154.998 38.458 C 155.226 38.664,155.660 38.950,155.961 39.093 C 156.263 39.237,156.966 39.780,157.523 40.302 C 158.080 40.823,158.622 41.281,158.726 41.319 C 158.831 41.357,159.116 41.601,159.359 41.861 C 159.602 42.121,159.847 42.333,159.905 42.333 C 160.022 42.333,160.688 42.923,162.308 44.458 C 162.912 45.031,163.462 45.500,163.529 45.500 C 163.596 45.500,164.240 46.100,164.960 46.833 C 165.680 47.567,166.396 48.167,166.551 48.167 C 166.706 48.167,166.834 48.260,166.834 48.375 C 166.835 48.490,167.260 48.958,167.779 49.417 C 168.299 49.875,168.895 50.419,169.104 50.625 C 169.314 50.831,169.526 51.000,169.577 51.000 C 169.628 51.000,169.905 51.225,170.193 51.500 C 170.481 51.775,170.783 52.000,170.865 52.000 C 171.041 52.000,171.387 52.272,171.875 52.792 C 172.068 52.998,172.326 53.167,172.447 53.167 C 172.568 53.167,172.667 53.234,172.667 53.316 C 172.667 53.485,174.529 54.417,175.204 54.587 C 176.330 54.869,185.615 55.084,185.916 54.834 C 186.019 54.749,186.661 54.685,187.343 54.692 C 188.990 54.709,189.877 54.459,190.179 53.891 C 190.365 53.543,190.371 53.430,190.208 53.376 C 190.094 53.337,190.000 53.199,190.000 53.069 C 190.000 52.940,189.925 52.833,189.833 52.833 C 189.742 52.833,189.667 52.759,189.667 52.668 C 189.667 52.499,189.216 51.925,188.542 51.233 C 188.335 51.022,188.167 50.805,188.167 50.752 C 188.167 50.615,187.035 49.500,186.896 49.500 C 186.767 49.500,185.886 48.570,184.970 47.467 C 184.633 47.061,184.033 46.508,183.637 46.239 C 183.241 45.970,182.886 45.675,182.849 45.583 C 182.736 45.308,180.260 43.000,180.077 43.000 C 179.957 43.000,179.500 42.559,179.500 42.443 C 179.500 42.319,178.354 41.167,178.231 41.167 C 178.172 41.167,177.788 40.832,177.379 40.423 C 176.970 40.014,176.492 39.634,176.318 39.578 C 176.143 39.523,176.000 39.402,176.000 39.309 C 176.000 39.050,174.230 37.419,173.285 36.808 C 172.523 36.316,173.345 36.167,176.818 36.167 C 178.969 36.167,180.353 36.103,180.417 36.000 C 180.473 35.908,180.779 35.833,181.095 35.833 C 181.412 35.833,181.820 35.758,182.002 35.667 C 182.184 35.575,182.482 35.425,182.664 35.333 C 182.846 35.242,183.092 35.167,183.211 35.167 C 183.329 35.167,183.535 35.017,183.667 34.833 C 183.799 34.650,183.990 34.500,184.091 34.500 C 184.312 34.500,185.000 33.795,185.000 33.568 C 185.000 33.479,185.150 33.299,185.333 33.167 C 185.517 33.035,185.667 32.793,185.667 32.630 C 185.667 32.467,185.742 32.333,185.833 32.333 C 185.925 32.333,186.000 32.183,186.000 32.000 C 186.000 31.817,186.075 31.667,186.167 31.667 C 186.258 31.667,186.333 31.484,186.333 31.260 C 186.333 31.036,186.400 30.812,186.481 30.762 C 186.562 30.712,186.677 30.426,186.737 30.127 C 186.797 29.828,186.920 29.208,187.011 28.750 C 187.466 26.448,187.669 12.977,187.273 11.333 C 187.217 11.104,187.129 10.692,187.076 10.417 C 186.968 9.854,186.316 8.446,186.125 8.361 C 186.056 8.331,186.000 8.214,186.000 8.102 C 186.000 7.455,183.789 5.833,182.908 5.833 C 182.684 5.833,182.500 5.758,182.500 5.667 C 182.500 5.575,182.279 5.500,182.010 5.500 C 181.740 5.500,181.473 5.425,181.417 5.333 C 181.360 5.242,181.018 5.167,180.657 5.167 C 180.296 5.167,180.000 5.092,180.000 5.000 C 180.000 4.904,179.472 4.833,178.750 4.833 C 178.020 4.833,177.500 4.763,177.500 4.665 C 177.500 4.482,144.130 4.561,140.667 4.752 C 139.316 4.826,138.561 4.795,138.111 4.647 C 137.620 4.486,137.400 4.483,137.160 4.632 C 136.963 4.755,136.812 4.767,136.748 4.663 C 136.692 4.573,136.408 4.512,136.115 4.527 L 135.583 4.553 136.116 4.620 M310.153 12.401 C 310.115 12.438,309.821 12.519,309.500 12.581 C 309.179 12.643,308.709 12.734,308.456 12.783 C 308.203 12.832,307.955 12.938,307.905 13.019 C 307.855 13.100,307.682 13.167,307.522 13.167 C 307.361 13.167,307.069 13.317,306.872 13.500 C 306.675 13.683,306.447 13.833,306.364 13.833 C 306.282 13.833,305.868 14.171,305.443 14.583 C 305.019 14.996,304.591 15.333,304.493 15.333 C 304.394 15.333,304.360 15.408,304.417 15.500 C 304.473 15.592,304.410 15.667,304.275 15.667 C 304.141 15.667,303.705 16.060,303.307 16.542 C 302.909 17.023,302.527 17.442,302.458 17.472 C 302.390 17.503,302.333 17.634,302.333 17.764 C 302.333 17.894,302.258 18.000,302.167 18.000 C 302.075 18.000,302.000 18.075,302.000 18.166 C 302.000 18.258,301.719 18.625,301.375 18.982 C 301.031 19.339,300.603 19.920,300.424 20.274 C 300.244 20.627,299.963 21.116,299.799 21.359 C 299.634 21.602,299.500 21.954,299.500 22.141 C 299.500 22.328,299.425 22.527,299.333 22.583 C 299.242 22.640,299.167 22.929,299.167 23.227 C 299.167 23.524,299.100 23.838,299.019 23.925 C 298.724 24.240,298.698 25.955,298.988 25.935 C 299.316 25.912,299.366 27.184,299.042 27.292 C 298.915 27.334,298.832 27.209,298.831 26.972 C 298.829 26.660,298.796 26.633,298.667 26.833 C 298.461 27.152,298.455 27.754,298.655 28.127 C 298.739 28.286,298.843 28.530,298.884 28.669 C 299.158 29.588,303.659 30.149,310.865 30.162 C 312.424 30.165,313.522 30.234,313.583 30.333 C 313.648 30.438,315.391 30.500,318.260 30.500 C 320.981 30.500,322.833 30.563,322.833 30.656 C 322.833 31.216,344.418 31.204,344.764 30.643 C 344.813 30.565,345.749 30.500,346.843 30.500 C 348.110 30.500,348.833 30.437,348.833 30.327 C 348.833 30.228,349.138 30.170,349.542 30.191 C 351.095 30.274,353.173 29.820,353.958 29.226 C 354.819 28.575,354.627 26.833,353.695 26.833 C 353.588 26.833,353.500 26.758,353.500 26.667 C 353.500 26.575,353.327 26.500,353.117 26.500 C 352.906 26.500,352.647 26.414,352.541 26.308 C 352.436 26.203,352.027 26.091,351.633 26.060 C 349.603 25.899,347.925 25.658,347.772 25.505 C 347.552 25.286,346.885 25.282,346.750 25.500 C 346.616 25.717,345.667 25.717,345.667 25.500 C 345.667 25.408,345.367 25.333,345.000 25.333 C 344.633 25.333,344.333 25.258,344.333 25.167 C 344.333 25.075,344.150 25.000,343.927 25.000 C 343.703 25.000,343.473 25.075,343.417 25.167 C 343.360 25.258,342.868 25.333,342.323 25.333 C 341.774 25.333,341.333 25.259,341.333 25.167 C 341.333 25.063,340.361 25.000,338.750 25.000 C 337.139 25.000,336.167 24.937,336.167 24.833 C 336.167 24.731,335.337 24.667,334.010 24.667 C 332.752 24.667,331.810 24.597,331.750 24.500 C 331.693 24.408,331.051 24.333,330.323 24.333 C 329.552 24.333,329.000 24.264,329.000 24.167 C 329.000 24.075,328.667 24.000,328.260 24.000 C 327.853 24.000,327.477 23.931,327.425 23.846 C 327.372 23.762,327.091 23.640,326.799 23.576 C 326.027 23.406,325.833 23.128,325.833 22.188 C 325.833 21.729,325.758 21.307,325.667 21.250 C 325.575 21.193,325.500 20.972,325.500 20.759 C 325.500 20.331,325.275 19.846,324.708 19.055 C 324.502 18.767,324.333 18.450,324.333 18.349 C 324.333 18.249,324.258 18.167,324.167 18.167 C 324.075 18.167,324.000 18.017,324.000 17.833 C 324.000 17.650,323.943 17.500,323.874 17.500 C 323.805 17.500,323.642 17.261,323.513 16.970 C 323.172 16.199,322.856 15.837,321.140 14.246 C 319.535 12.757,317.820 12.357,312.986 12.342 C 311.466 12.337,310.191 12.364,310.153 12.401 M168.435 15.186 C 168.536 15.268,169.723 15.327,171.071 15.318 C 172.420 15.309,173.557 15.335,173.598 15.376 C 173.827 15.605,173.737 23.637,173.500 24.097 C 173.002 25.065,171.830 25.829,170.445 26.089 C 170.106 26.153,169.789 26.271,169.738 26.352 C 169.688 26.434,169.168 26.500,168.583 26.500 C 167.998 26.500,167.473 26.575,167.417 26.667 C 167.354 26.768,166.093 26.833,164.190 26.833 C 162.170 26.833,161.003 26.897,160.886 27.014 C 160.768 27.132,160.251 27.158,159.394 27.088 C 158.673 27.030,156.621 26.948,154.833 26.906 C 153.046 26.865,151.433 26.759,151.250 26.672 C 151.067 26.585,150.467 26.483,149.917 26.446 C 148.139 26.324,145.167 25.499,145.167 25.127 C 145.167 25.057,145.088 25.000,144.992 25.000 C 144.774 25.000,144.000 24.237,144.000 24.021 C 144.000 23.933,143.931 23.836,143.847 23.806 C 143.338 23.621,143.336 17.377,143.845 17.194 C 143.930 17.164,144.000 16.995,144.000 16.819 C 144.000 16.644,144.075 16.500,144.167 16.500 C 144.258 16.500,144.333 16.331,144.333 16.124 C 144.333 15.856,144.489 15.684,144.875 15.527 C 145.173 15.405,145.567 15.238,145.750 15.157 C 146.399 14.867,168.073 14.895,168.435 15.186 M315.377 19.144 C 315.481 19.248,315.669 19.333,315.795 19.333 C 315.921 19.333,316.350 19.558,316.750 19.833 C 317.150 20.108,317.557 20.333,317.655 20.333 C 317.753 20.333,317.833 20.408,317.833 20.500 C 317.833 20.592,317.927 20.669,318.042 20.672 C 318.654 20.689,320.106 22.751,319.975 23.419 C 319.863 23.986,318.651 24.333,316.780 24.333 C 315.927 24.333,315.333 24.402,315.333 24.500 C 315.333 24.715,311.125 24.725,310.908 24.510 C 310.821 24.424,309.925 24.318,308.917 24.274 C 305.428 24.123,305.087 23.922,306.249 22.697 C 306.569 22.360,306.831 21.984,306.832 21.863 C 306.834 21.555,307.155 21.267,307.879 20.923 C 308.221 20.761,308.500 20.562,308.500 20.481 C 308.500 20.400,308.610 20.333,308.745 20.333 C 308.994 20.333,310.121 19.758,310.408 19.484 C 310.495 19.401,310.724 19.333,310.917 19.333 C 311.109 19.333,311.338 19.266,311.425 19.183 C 311.820 18.807,315.009 18.775,315.377 19.144 M267.242 30.150 C 267.155 30.232,266.558 30.339,265.917 30.387 C 264.919 30.463,263.688 30.685,263.083 30.899 C 262.992 30.931,262.671 31.014,262.372 31.084 C 262.072 31.153,261.786 31.275,261.737 31.355 C 261.687 31.435,261.501 31.500,261.323 31.500 C 261.146 31.500,261.000 31.575,261.000 31.667 C 261.000 31.758,260.850 31.833,260.667 31.833 C 260.483 31.833,260.333 31.908,260.333 32.000 C 260.333 32.092,260.221 32.167,260.083 32.167 C 259.946 32.167,259.833 32.223,259.833 32.293 C 259.833 32.362,259.616 32.515,259.351 32.632 C 259.086 32.749,258.285 33.405,257.572 34.089 C 256.858 34.774,256.212 35.333,256.137 35.333 C 256.062 35.333,256.000 35.446,256.000 35.583 C 256.000 35.721,255.938 35.833,255.861 35.833 C 255.785 35.833,255.617 36.040,255.486 36.292 C 255.356 36.544,255.125 36.888,254.973 37.057 C 254.821 37.226,254.558 37.807,254.390 38.348 C 254.221 38.888,254.027 39.331,253.958 39.332 C 253.890 39.333,253.833 39.591,253.833 39.907 C 253.833 40.222,253.758 40.527,253.667 40.583 C 253.569 40.644,253.500 41.637,253.500 43.000 C 253.500 44.363,253.569 45.356,253.667 45.417 C 253.758 45.473,253.833 45.736,253.833 46.000 C 253.833 46.264,253.908 46.527,254.000 46.583 C 254.092 46.640,254.167 46.833,254.167 47.012 C 254.167 47.581,255.325 49.771,256.050 50.571 C 256.435 50.996,256.975 51.611,257.250 51.938 C 258.033 52.869,258.963 53.833,259.079 53.833 C 259.137 53.833,259.460 54.021,259.798 54.250 C 260.135 54.479,260.537 54.667,260.691 54.667 C 260.846 54.667,260.997 54.725,261.028 54.797 C 261.133 55.045,263.738 56.230,264.493 56.374 C 267.331 56.914,271.382 56.523,272.186 55.632 C 272.334 55.468,272.653 55.333,272.895 55.333 C 273.136 55.333,273.333 55.258,273.333 55.167 C 273.333 55.075,273.483 55.000,273.667 55.000 C 273.850 55.000,274.000 54.934,274.000 54.854 C 274.000 54.774,274.229 54.663,274.508 54.607 C 275.070 54.494,276.500 53.575,276.500 53.325 C 276.500 53.238,276.572 53.167,276.661 53.167 C 277.030 53.167,280.167 50.040,280.167 49.673 C 280.167 49.578,280.223 49.499,280.292 49.499 C 280.441 49.497,280.833 48.690,280.833 48.383 C 280.833 48.264,280.898 48.167,280.978 48.167 C 281.243 48.167,281.349 46.783,281.360 43.167 C 281.373 38.675,281.145 37.569,279.975 36.477 C 279.714 36.233,279.500 35.928,279.500 35.800 C 279.500 35.565,278.046 34.119,276.992 33.307 C 276.675 33.063,276.082 32.557,275.673 32.182 C 275.265 31.807,274.833 31.500,274.715 31.500 C 274.597 31.500,274.500 31.443,274.500 31.374 C 274.500 31.146,272.146 30.331,271.492 30.333 C 271.258 30.333,270.985 30.251,270.885 30.151 C 270.753 30.020,270.608 30.020,270.362 30.151 C 269.936 30.379,268.555 30.390,268.417 30.167 C 268.289 29.959,267.456 29.947,267.242 30.150 M356.833 30.163 C 356.696 30.242,355.908 30.429,355.083 30.580 C 354.258 30.730,353.512 30.923,353.425 31.010 C 353.338 31.096,353.132 31.167,352.967 31.167 C 352.802 31.167,352.667 31.242,352.667 31.333 C 352.667 31.425,352.517 31.500,352.333 31.500 C 352.150 31.500,352.000 31.575,352.000 31.667 C 352.000 31.758,351.905 31.833,351.790 31.833 C 351.674 31.833,351.430 32.033,351.248 32.277 C 350.762 32.929,349.714 33.999,349.555 34.007 C 349.413 34.013,348.333 35.408,348.333 35.583 C 348.333 35.637,348.183 35.842,348.000 36.038 C 347.817 36.235,347.667 36.495,347.667 36.615 C 347.667 36.735,347.606 36.833,347.531 36.833 C 347.457 36.833,347.293 37.096,347.167 37.417 C 347.041 37.737,346.877 38.000,346.802 38.000 C 346.728 38.000,346.667 38.150,346.667 38.333 C 346.667 38.517,346.600 38.667,346.519 38.667 C 346.437 38.667,346.321 38.929,346.261 39.250 C 346.201 39.571,346.080 39.833,345.992 39.833 C 345.905 39.833,345.833 39.983,345.833 40.167 C 345.833 40.350,345.758 40.500,345.667 40.500 C 345.575 40.500,345.500 40.725,345.500 41.000 C 345.500 41.275,345.425 41.500,345.333 41.500 C 345.242 41.500,345.167 41.683,345.167 41.907 C 345.167 42.131,345.090 42.361,344.996 42.419 C 344.446 42.759,345.282 47.217,346.011 47.833 C 346.065 47.879,346.224 48.142,346.364 48.417 C 347.006 49.676,347.406 50.333,347.531 50.333 C 347.606 50.333,347.667 50.439,347.667 50.569 C 347.667 51.339,352.082 55.000,353.011 55.000 C 353.191 55.000,353.487 55.075,353.669 55.167 C 353.851 55.258,354.149 55.408,354.331 55.500 C 354.513 55.592,354.776 55.667,354.914 55.667 C 355.053 55.667,355.167 55.733,355.167 55.815 C 355.167 56.446,362.710 56.437,363.101 55.805 C 363.148 55.729,363.332 55.667,363.510 55.667 C 363.688 55.667,363.833 55.592,363.833 55.500 C 363.833 55.408,364.021 55.333,364.250 55.333 C 364.479 55.333,364.667 55.258,364.667 55.167 C 364.667 55.075,364.892 55.000,365.167 55.000 C 365.442 55.000,365.667 54.925,365.667 54.833 C 365.667 54.742,365.790 54.667,365.942 54.667 C 366.330 54.667,368.015 53.824,368.433 53.421 C 368.625 53.235,369.071 52.858,369.425 52.583 C 370.467 51.773,371.833 50.311,371.833 50.007 C 371.833 49.911,371.908 49.833,372.000 49.833 C 372.092 49.833,372.167 49.683,372.167 49.500 C 372.167 49.317,372.234 49.167,372.316 49.167 C 372.574 49.167,373.547 46.951,373.633 46.167 C 373.678 45.754,373.798 45.363,373.899 45.298 C 374.149 45.136,374.139 40.787,373.888 40.477 C 373.788 40.352,373.653 40.005,373.589 39.707 C 373.525 39.408,373.375 38.958,373.255 38.707 C 373.135 38.455,372.912 37.979,372.760 37.648 C 372.608 37.316,372.337 36.888,372.158 36.696 C 371.980 36.504,371.833 36.269,371.833 36.174 C 371.833 36.078,371.758 36.000,371.667 36.000 C 371.575 36.000,371.500 35.887,371.500 35.749 C 371.500 35.439,370.064 34.000,369.755 34.000 C 369.631 34.000,369.107 33.587,368.591 33.083 C 368.074 32.579,367.543 32.167,367.409 32.167 C 367.276 32.167,367.167 32.092,367.167 32.000 C 367.167 31.908,367.017 31.833,366.833 31.833 C 366.650 31.833,366.500 31.758,366.500 31.667 C 366.500 31.575,366.350 31.500,366.167 31.500 C 365.983 31.500,365.833 31.441,365.833 31.370 C 365.833 31.298,365.477 31.146,365.042 31.033 C 364.606 30.919,363.902 30.715,363.478 30.580 C 363.053 30.444,362.434 30.333,362.103 30.333 C 361.771 30.333,361.500 30.258,361.500 30.167 C 361.500 29.930,360.607 29.959,360.363 30.204 C 360.201 30.365,360.089 30.365,359.831 30.204 C 359.439 29.959,358.500 29.932,358.500 30.167 C 358.500 30.258,358.317 30.333,358.093 30.333 C 357.869 30.333,357.640 30.258,357.583 30.167 C 357.460 29.968,357.176 29.966,356.833 30.163 M206.442 34.958 C 206.400 35.027,206.714 35.061,207.141 35.034 C 208.358 34.955,208.506 34.874,207.468 34.853 C 206.946 34.842,206.485 34.890,206.442 34.958 M360.667 35.042 C 360.667 35.110,360.850 35.167,361.073 35.167 C 361.297 35.167,361.527 35.242,361.583 35.333 C 361.640 35.425,361.832 35.500,362.010 35.500 C 362.188 35.500,362.333 35.561,362.333 35.636 C 362.333 35.710,362.596 35.874,362.917 36.000 C 363.238 36.126,363.500 36.278,363.500 36.338 C 363.500 36.398,363.672 36.525,363.883 36.621 C 364.746 37.014,367.490 39.748,367.986 40.709 C 368.117 40.961,368.285 41.167,368.361 41.167 C 368.438 41.167,368.500 41.279,368.500 41.417 C 368.500 41.554,368.575 41.667,368.667 41.667 C 368.758 41.667,368.833 41.892,368.833 42.167 C 368.833 42.442,368.908 42.667,369.000 42.667 C 369.092 42.667,369.167 42.892,369.167 43.167 C 369.167 43.442,369.092 43.667,369.000 43.667 C 368.908 43.667,368.833 43.854,368.833 44.083 C 368.833 44.313,368.758 44.500,368.667 44.500 C 368.575 44.500,368.500 44.598,368.500 44.719 C 368.500 44.839,368.361 45.086,368.192 45.268 C 368.022 45.450,367.854 45.677,367.817 45.773 C 367.632 46.257,364.969 49.167,364.711 49.167 C 364.636 49.167,364.465 49.317,364.333 49.500 C 364.201 49.683,363.960 49.833,363.797 49.833 C 363.633 49.833,363.500 49.890,363.500 49.959 C 363.500 50.029,363.294 50.173,363.042 50.281 C 361.658 50.870,361.241 51.000,360.739 51.000 C 360.435 51.000,360.140 51.075,360.083 51.167 C 359.957 51.371,357.888 51.390,357.763 51.188 C 357.714 51.108,357.147 50.906,356.503 50.739 C 355.860 50.572,355.333 50.375,355.333 50.301 C 355.333 50.227,355.221 50.167,355.083 50.167 C 354.946 50.167,354.833 50.092,354.833 50.000 C 354.833 49.908,354.733 49.833,354.610 49.833 C 354.219 49.833,352.921 48.444,352.586 47.667 C 352.408 47.254,352.128 46.671,351.964 46.370 C 351.801 46.069,351.667 45.605,351.667 45.338 C 351.667 45.071,351.592 44.807,351.500 44.750 C 351.408 44.693,351.333 43.981,351.333 43.167 C 351.333 42.352,351.408 41.640,351.500 41.583 C 351.592 41.527,351.667 41.227,351.667 40.917 C 351.667 40.607,351.742 40.307,351.833 40.250 C 351.925 40.193,352.000 40.001,352.000 39.823 C 352.000 39.646,352.075 39.500,352.167 39.500 C 352.258 39.500,352.333 39.350,352.333 39.167 C 352.333 38.983,352.408 38.833,352.500 38.833 C 352.592 38.833,352.667 38.732,352.667 38.609 C 352.667 38.486,352.854 38.167,353.083 37.901 C 353.312 37.635,353.500 37.337,353.500 37.240 C 353.500 37.143,353.800 36.932,354.167 36.770 C 354.533 36.608,354.833 36.406,354.833 36.321 C 354.833 36.236,354.946 36.167,355.083 36.167 C 355.221 36.167,355.333 36.092,355.333 36.000 C 355.333 35.908,355.483 35.833,355.667 35.833 C 355.850 35.833,356.000 35.758,356.000 35.667 C 356.000 35.575,356.225 35.500,356.500 35.500 C 356.775 35.500,357.000 35.425,357.000 35.333 C 357.000 35.242,357.262 35.167,357.583 35.167 C 357.904 35.167,358.167 35.107,358.167 35.035 C 358.167 34.962,358.729 34.906,359.417 34.910 C 360.104 34.914,360.667 34.973,360.667 35.042 M269.667 35.333 C 269.667 35.425,269.808 35.500,269.980 35.500 C 270.378 35.500,273.333 37.000,273.333 37.202 C 273.333 37.285,273.708 37.750,274.167 38.234 C 274.625 38.719,275.000 39.202,275.000 39.308 C 275.000 39.413,275.061 39.500,275.135 39.500 C 275.282 39.500,275.833 40.662,275.833 40.973 C 275.833 41.079,275.908 41.167,276.000 41.167 C 276.092 41.167,276.167 41.542,276.167 42.000 C 276.167 42.458,276.242 42.833,276.333 42.833 C 276.425 42.833,276.500 43.133,276.500 43.500 C 276.500 43.867,276.425 44.167,276.333 44.167 C 276.242 44.167,276.167 44.468,276.167 44.836 C 276.167 45.414,275.953 46.050,275.665 46.333 C 275.618 46.379,275.433 46.698,275.252 47.042 C 275.072 47.385,274.866 47.667,274.795 47.667 C 274.725 47.667,274.667 47.753,274.667 47.859 C 274.667 48.097,272.576 50.167,272.336 50.167 C 272.240 50.167,272.032 50.237,271.873 50.323 C 271.137 50.719,270.423 51.000,270.151 51.000 C 269.987 51.000,269.807 51.075,269.750 51.167 C 269.693 51.260,268.918 51.333,268.000 51.333 C 267.082 51.333,266.307 51.260,266.250 51.167 C 266.193 51.075,265.975 51.000,265.766 51.000 C 265.556 51.000,265.167 50.897,264.901 50.771 C 264.634 50.645,264.173 50.439,263.875 50.313 C 263.577 50.188,263.333 50.029,263.333 49.959 C 263.333 49.890,263.255 49.833,263.159 49.833 C 263.063 49.833,262.809 49.665,262.594 49.458 C 262.379 49.252,261.951 48.850,261.643 48.565 C 261.335 48.280,260.821 47.665,260.500 47.198 C 260.179 46.731,259.860 46.345,259.792 46.341 C 259.723 46.337,259.667 46.221,259.667 46.083 C 259.667 45.946,259.592 45.833,259.500 45.833 C 259.408 45.833,259.333 45.613,259.333 45.343 C 259.333 45.074,259.258 44.807,259.167 44.750 C 259.075 44.693,259.000 43.976,259.000 43.157 C 259.000 42.274,259.068 41.667,259.167 41.667 C 259.258 41.667,259.333 41.524,259.333 41.349 C 259.333 39.666,264.045 35.500,265.948 35.500 C 266.149 35.500,266.360 35.425,266.417 35.333 C 266.474 35.241,267.224 35.167,268.093 35.167 C 269.031 35.167,269.667 35.234,269.667 35.333 M374.665 35.708 C 374.483 36.006,374.334 36.320,374.334 36.405 C 374.332 36.936,375.295 39.167,375.526 39.167 C 375.603 39.167,375.667 39.238,375.667 39.325 C 375.667 39.592,376.744 41.290,377.433 42.107 C 378.123 42.928,378.211 43.038,379.006 44.083 C 380.636 46.227,385.782 51.426,387.107 52.268 C 387.644 52.609,388.130 52.958,388.186 53.043 C 388.289 53.199,389.000 52.852,389.000 52.646 C 389.000 52.587,389.156 52.498,389.346 52.448 C 389.536 52.399,389.732 52.203,389.782 52.012 C 389.832 51.822,389.938 51.667,390.019 51.667 C 390.224 51.667,390.205 49.044,390.000 48.917 C 389.908 48.860,389.833 48.641,389.833 48.430 C 389.833 48.219,389.646 47.770,389.417 47.433 C 389.188 47.095,389.000 46.747,389.000 46.659 C 389.000 46.572,388.925 46.500,388.833 46.500 C 388.742 46.500,388.667 46.404,388.667 46.287 C 388.667 46.170,388.535 45.950,388.375 45.799 C 387.928 45.377,387.667 45.030,387.667 44.859 C 387.667 44.774,387.085 44.101,386.375 43.364 C 385.665 42.627,384.783 41.696,384.417 41.296 C 384.050 40.896,383.488 40.386,383.167 40.164 C 382.416 39.643,382.196 39.467,381.950 39.192 C 381.242 38.399,380.421 37.667,380.241 37.667 C 380.192 37.667,379.950 37.479,379.703 37.250 C 379.456 37.021,379.155 36.833,379.036 36.833 C 378.916 36.833,378.634 36.649,378.410 36.425 C 378.185 36.200,377.719 35.894,377.375 35.744 C 377.031 35.594,376.620 35.403,376.461 35.319 C 375.795 34.968,375.013 35.138,374.665 35.708 M206.205 40.667 C 206.205 40.987,206.240 41.119,206.282 40.958 C 206.323 40.798,206.323 40.535,206.282 40.375 C 206.240 40.215,206.205 40.346,206.205 40.667 M211.960 55.118 C 212.168 55.158,212.468 55.156,212.627 55.115 C 212.786 55.073,212.617 55.040,212.250 55.042 C 211.883 55.044,211.753 55.078,211.960 55.118 M199.032 55.291 C 200.013 55.320,201.663 55.320,202.699 55.291 C 203.735 55.262,202.933 55.238,200.917 55.238 C 198.900 55.238,198.052 55.262,199.032 55.291 " stroke="none" fill="#fbfbfb" fill-rule="evenodd"></path><path id="path1" d="M97.417 1.606 C 96.775 1.642,96.100 1.742,95.917 1.829 C 95.733 1.915,95.133 2.024,94.583 2.070 C 92.833 2.217,91.926 2.347,91.583 2.499 C 91.400 2.581,90.931 2.690,90.542 2.741 C 88.778 2.972,88.407 3.044,88.258 3.184 C 88.171 3.266,87.815 3.333,87.467 3.333 C 87.118 3.333,86.833 3.401,86.833 3.483 C 86.833 3.565,86.308 3.686,85.667 3.750 C 85.025 3.814,84.500 3.935,84.500 4.017 C 84.500 4.099,84.275 4.167,84.000 4.167 C 83.725 4.167,83.500 4.242,83.500 4.333 C 83.500 4.425,83.279 4.500,83.010 4.500 C 82.740 4.500,82.473 4.575,82.417 4.667 C 82.360 4.758,82.135 4.833,81.917 4.833 C 81.698 4.833,81.473 4.908,81.417 5.000 C 81.360 5.092,81.135 5.167,80.917 5.167 C 80.698 5.167,80.473 5.242,80.417 5.333 C 80.360 5.425,80.131 5.500,79.907 5.500 C 79.683 5.500,79.500 5.565,79.500 5.645 C 79.500 5.725,79.128 5.840,78.674 5.900 C 78.219 5.960,77.802 6.082,77.747 6.171 C 77.692 6.261,77.426 6.333,77.157 6.333 C 76.887 6.333,76.667 6.408,76.667 6.500 C 76.667 6.592,76.484 6.667,76.260 6.667 C 76.036 6.667,75.807 6.742,75.750 6.833 C 75.693 6.925,75.441 7.000,75.190 7.000 C 74.939 7.000,74.662 7.069,74.575 7.153 C 73.848 7.853,73.167 7.165,73.167 5.731 C 73.167 5.237,73.092 4.833,73.000 4.833 C 72.908 4.833,72.833 4.684,72.833 4.501 C 72.833 4.111,72.203 3.333,71.887 3.333 C 71.766 3.333,71.667 3.258,71.667 3.167 C 71.667 3.075,71.442 3.000,71.167 3.000 C 70.892 3.000,70.667 2.925,70.667 2.833 C 70.667 2.742,70.334 2.667,69.927 2.667 C 69.519 2.667,69.140 2.592,69.083 2.500 C 69.024 2.405,68.168 2.333,67.083 2.333 C 65.998 2.333,65.142 2.262,65.083 2.167 C 64.941 1.937,46.000 1.937,46.000 2.167 C 46.000 2.266,45.361 2.333,44.417 2.333 C 43.472 2.333,42.833 2.401,42.833 2.500 C 42.833 2.594,42.364 2.667,41.760 2.667 C 41.169 2.667,40.640 2.742,40.583 2.833 C 40.527 2.925,40.087 3.000,39.607 3.000 C 39.126 3.000,38.662 3.067,38.575 3.150 C 38.488 3.232,38.117 3.341,37.750 3.391 C 35.594 3.689,34.565 3.882,34.425 4.016 C 34.338 4.099,34.061 4.167,33.810 4.167 C 33.559 4.167,33.307 4.242,33.250 4.333 C 33.193 4.425,32.926 4.500,32.657 4.500 C 32.387 4.500,32.167 4.575,32.167 4.667 C 32.167 4.758,31.946 4.833,31.677 4.833 C 31.407 4.833,31.140 4.908,31.083 5.000 C 31.027 5.092,30.842 5.167,30.673 5.167 C 30.503 5.167,30.076 5.308,29.724 5.482 C 29.372 5.655,28.615 5.936,28.042 6.107 C 27.469 6.277,27.000 6.473,27.000 6.542 C 27.000 6.610,26.850 6.667,26.667 6.667 C 26.483 6.667,26.333 6.742,26.333 6.833 C 26.333 6.925,26.240 7.000,26.125 7.000 C 25.862 6.999,22.103 8.872,22.028 9.041 C 21.997 9.110,21.828 9.167,21.653 9.167 C 21.477 9.167,21.333 9.242,21.333 9.333 C 21.333 9.425,21.235 9.500,21.115 9.500 C 20.995 9.500,20.735 9.650,20.538 9.833 C 20.342 10.017,20.114 10.167,20.033 10.167 C 19.952 10.167,19.459 10.579,18.939 11.083 C 18.418 11.588,17.954 12.000,17.907 12.000 C 17.781 12.000,16.667 13.138,16.667 13.267 C 16.667 13.328,16.533 13.499,16.370 13.647 C 16.040 13.946,14.833 15.935,14.833 16.179 C 14.833 16.264,14.758 16.333,14.667 16.333 C 14.575 16.333,14.500 16.483,14.500 16.667 C 14.500 16.850,14.425 17.000,14.333 17.000 C 14.242 17.000,14.167 17.188,14.167 17.417 C 14.167 17.646,14.092 17.833,14.000 17.833 C 13.908 17.833,13.833 18.054,13.833 18.323 C 13.833 18.593,13.758 18.860,13.667 18.917 C 13.445 19.054,13.445 23.446,13.667 23.583 C 13.758 23.640,13.833 23.825,13.833 23.994 C 13.833 24.404,14.490 25.652,14.958 26.131 C 15.165 26.342,15.333 26.574,15.333 26.647 C 15.333 26.857,17.440 29.000,17.646 29.000 C 17.749 29.000,17.833 29.068,17.833 29.152 C 17.833 29.348,19.473 30.167,19.866 30.167 C 20.031 30.167,20.167 30.242,20.167 30.333 C 20.167 30.425,20.304 30.500,20.472 30.500 C 20.640 30.500,20.831 30.553,20.895 30.617 C 20.960 30.682,21.216 30.762,21.465 30.794 C 21.713 30.827,21.942 30.924,21.972 31.010 C 22.003 31.096,22.284 31.167,22.597 31.167 C 22.910 31.167,23.167 31.242,23.167 31.333 C 23.167 31.425,23.542 31.500,24.000 31.500 C 24.458 31.500,24.833 31.568,24.833 31.651 C 24.833 31.734,25.227 31.841,25.708 31.889 C 26.190 31.936,27.483 32.099,28.583 32.250 C 29.683 32.402,31.071 32.563,31.667 32.610 C 32.262 32.656,32.821 32.763,32.908 32.847 C 32.995 32.931,33.487 33.000,34.000 33.000 C 34.513 33.000,35.005 33.068,35.092 33.150 C 35.179 33.233,35.813 33.346,36.500 33.402 C 39.207 33.620,39.762 33.687,40.083 33.833 C 40.267 33.917,40.829 34.024,41.333 34.071 C 44.496 34.366,46.000 34.566,46.000 34.690 C 46.000 34.769,46.413 34.833,46.917 34.833 C 47.421 34.833,47.833 34.908,47.833 35.000 C 47.833 35.092,48.091 35.167,48.407 35.167 C 48.722 35.167,49.027 35.242,49.083 35.333 C 49.140 35.425,49.482 35.500,49.843 35.500 C 50.204 35.500,50.500 35.575,50.500 35.667 C 50.500 35.758,50.725 35.833,51.000 35.833 C 51.275 35.833,51.500 35.908,51.500 36.000 C 51.500 36.092,51.650 36.167,51.833 36.167 C 52.017 36.167,52.167 36.242,52.167 36.333 C 52.167 36.425,52.270 36.500,52.396 36.500 C 53.335 36.500,52.876 37.244,51.583 37.817 C 51.308 37.939,50.953 38.105,50.794 38.186 C 50.635 38.267,50.358 38.333,50.179 38.333 C 50.000 38.333,49.807 38.408,49.750 38.500 C 49.693 38.592,49.464 38.667,49.240 38.667 C 49.016 38.667,48.833 38.742,48.833 38.833 C 48.833 38.925,48.654 39.000,48.436 39.000 C 48.217 39.000,47.823 39.112,47.561 39.249 C 47.298 39.386,46.855 39.498,46.575 39.499 C 46.295 39.500,45.995 39.568,45.908 39.651 C 45.760 39.792,45.277 39.874,43.250 40.103 C 42.792 40.155,42.345 40.265,42.258 40.349 C 42.171 40.432,41.857 40.500,41.560 40.500 C 41.263 40.500,40.973 40.575,40.917 40.667 C 40.860 40.758,40.368 40.833,39.823 40.833 C 39.274 40.833,38.833 40.908,38.833 41.000 C 38.833 41.092,38.454 41.167,37.990 41.167 C 37.526 41.167,37.187 41.231,37.235 41.309 C 37.283 41.387,36.706 41.495,35.951 41.548 C 35.196 41.601,34.369 41.725,34.112 41.822 C 33.855 41.920,33.312 42.000,32.906 42.000 C 32.499 42.000,32.167 42.075,32.167 42.167 C 32.167 42.261,31.694 42.333,31.083 42.333 C 30.472 42.333,30.000 42.406,30.000 42.500 C 30.000 42.595,29.500 42.667,28.833 42.667 C 28.167 42.667,27.667 42.738,27.667 42.833 C 27.667 42.933,27.028 43.000,26.083 43.000 C 25.139 43.000,24.500 43.067,24.500 43.167 C 24.500 43.271,23.528 43.333,21.917 43.333 C 20.306 43.333,19.333 43.271,19.333 43.167 C 19.333 43.075,19.038 43.000,18.677 43.000 C 18.315 43.000,17.973 42.925,17.917 42.833 C 17.860 42.742,17.673 42.667,17.501 42.667 C 17.330 42.667,17.142 42.517,17.083 42.333 C 17.025 42.150,16.908 42.000,16.822 42.000 C 16.737 42.000,16.667 41.887,16.667 41.750 C 16.667 41.612,16.604 41.500,16.528 41.500 C 16.452 41.500,16.283 41.294,16.153 41.042 C 15.845 40.443,15.241 39.833,14.958 39.833 C 14.834 39.833,14.653 39.753,14.554 39.654 C 14.256 39.356,10.500 39.660,10.500 39.983 C 10.500 40.044,10.294 40.111,10.042 40.132 C 9.790 40.153,9.558 40.244,9.528 40.335 C 9.497 40.426,9.328 40.500,9.153 40.500 C 8.977 40.500,8.833 40.561,8.833 40.636 C 8.833 40.710,8.571 40.874,8.250 41.000 C 7.929 41.126,7.667 41.290,7.667 41.364 C 7.667 41.439,7.535 41.501,7.375 41.503 C 7.215 41.504,6.848 41.710,6.559 41.961 C 5.549 42.840,4.915 43.327,4.779 43.330 C 4.561 43.335,3.107 44.875,2.847 45.377 C 2.717 45.628,2.548 45.833,2.472 45.833 C 2.396 45.833,2.333 45.946,2.333 46.083 C 2.333 46.221,2.277 46.333,2.207 46.333 C 2.043 46.333,1.704 47.107,1.566 47.793 C 1.507 48.090,1.393 48.333,1.313 48.333 C 1.232 48.333,1.167 49.046,1.167 49.917 C 1.167 50.861,1.234 51.500,1.333 51.500 C 1.425 51.500,1.500 51.620,1.500 51.766 C 1.500 52.591,2.923 54.391,3.737 54.595 C 3.973 54.654,4.167 54.770,4.167 54.851 C 4.167 54.933,4.312 55.000,4.490 55.000 C 4.668 55.000,4.860 55.075,4.917 55.167 C 4.973 55.258,5.198 55.333,5.417 55.333 C 5.635 55.333,5.865 55.416,5.928 55.518 C 6.007 55.647,6.089 55.634,6.200 55.476 C 6.323 55.300,6.378 55.296,6.443 55.458 C 6.490 55.573,6.732 55.667,6.981 55.667 C 7.230 55.667,7.505 55.735,7.592 55.819 C 8.146 56.351,26.167 56.352,26.167 55.820 C 26.167 55.736,26.902 55.667,27.800 55.667 C 28.698 55.667,29.505 55.598,29.592 55.513 C 29.742 55.368,30.502 55.277,33.333 55.068 C 34.021 55.017,34.655 54.906,34.742 54.821 C 34.829 54.736,35.241 54.665,35.658 54.663 C 36.362 54.660,37.143 54.554,39.500 54.142 C 40.004 54.054,40.773 53.941,41.208 53.892 C 41.644 53.842,42.000 53.733,42.000 53.651 C 42.000 53.568,42.333 53.500,42.740 53.500 C 43.147 53.500,43.527 53.425,43.583 53.333 C 43.640 53.242,43.977 53.167,44.333 53.167 C 44.689 53.167,45.027 53.092,45.083 53.000 C 45.140 52.908,45.407 52.833,45.677 52.833 C 45.946 52.833,46.167 52.766,46.167 52.683 C 46.167 52.600,46.617 52.480,47.167 52.417 C 47.717 52.353,48.209 52.233,48.260 52.150 C 48.311 52.068,48.611 52.000,48.927 52.000 C 49.242 52.000,49.500 51.925,49.500 51.833 C 49.500 51.742,49.721 51.667,49.990 51.667 C 50.260 51.667,50.527 51.592,50.583 51.500 C 50.640 51.408,50.907 51.333,51.177 51.333 C 51.446 51.333,51.667 51.258,51.667 51.167 C 51.667 51.075,51.850 51.000,52.073 51.000 C 52.297 51.000,52.527 50.925,52.583 50.833 C 52.640 50.742,52.832 50.667,53.010 50.667 C 53.188 50.667,53.333 50.601,53.333 50.521 C 53.333 50.441,53.553 50.331,53.821 50.277 C 54.411 50.160,55.895 49.485,55.972 49.300 C 56.003 49.226,56.155 49.167,56.310 49.167 C 56.466 49.167,56.701 49.017,56.833 48.833 C 56.965 48.650,57.207 48.500,57.370 48.500 C 57.533 48.500,57.667 48.425,57.667 48.333 C 57.667 48.242,57.817 48.167,58.000 48.167 C 58.183 48.167,58.333 48.092,58.333 48.000 C 58.333 47.908,58.442 47.833,58.576 47.833 C 58.709 47.833,59.006 47.646,59.235 47.417 C 59.464 47.188,59.711 47.000,59.784 47.001 C 60.088 47.003,63.500 43.489,63.500 43.174 C 63.500 43.078,63.575 43.000,63.667 43.000 C 63.758 43.000,63.833 42.902,63.833 42.781 C 63.833 42.661,63.983 42.402,64.167 42.205 C 64.350 42.008,64.500 41.732,64.500 41.590 C 64.500 41.449,64.575 41.333,64.667 41.333 C 64.758 41.333,64.833 41.150,64.833 40.927 C 64.833 40.703,64.898 40.479,64.978 40.430 C 65.057 40.381,65.171 40.021,65.230 39.629 C 65.289 39.237,65.383 38.625,65.439 38.268 C 65.541 37.628,65.281 36.024,64.985 35.461 C 64.902 35.301,64.833 35.058,64.833 34.919 C 64.833 34.780,64.758 34.667,64.667 34.667 C 64.575 34.667,64.500 34.533,64.500 34.370 C 64.500 34.207,64.350 33.965,64.167 33.833 C 63.983 33.701,63.833 33.535,63.833 33.464 C 63.833 33.221,62.269 31.500,62.048 31.500 C 61.964 31.500,61.751 31.368,61.573 31.207 C 61.084 30.763,60.372 30.333,60.126 30.333 C 60.006 30.333,59.799 30.183,59.667 30.000 C 59.535 29.817,59.293 29.667,59.130 29.667 C 58.967 29.667,58.833 29.610,58.833 29.541 C 58.833 29.471,58.590 29.316,58.292 29.196 C 57.994 29.076,57.620 28.908,57.461 28.822 C 57.301 28.737,57.058 28.667,56.919 28.667 C 56.780 28.667,56.667 28.596,56.667 28.510 C 56.667 28.424,56.329 28.303,55.917 28.241 C 55.504 28.179,55.167 28.062,55.167 27.981 C 55.167 27.900,54.942 27.833,54.667 27.833 C 54.392 27.833,54.167 27.758,54.167 27.667 C 54.167 27.575,53.942 27.500,53.667 27.500 C 53.392 27.500,53.167 27.425,53.167 27.333 C 53.167 27.242,52.904 27.167,52.583 27.167 C 52.262 27.167,52.000 27.092,52.000 27.000 C 52.000 26.908,51.779 26.833,51.510 26.833 C 51.240 26.833,50.973 26.758,50.917 26.667 C 50.860 26.575,50.598 26.500,50.333 26.500 C 50.069 26.500,49.807 26.425,49.750 26.333 C 49.693 26.242,49.421 26.167,49.146 26.167 C 48.870 26.167,48.499 26.089,48.321 25.994 C 48.144 25.898,47.509 25.775,46.910 25.719 C 46.312 25.663,45.783 25.554,45.735 25.475 C 45.687 25.397,45.314 25.333,44.907 25.333 C 44.500 25.333,44.167 25.258,44.167 25.167 C 44.167 25.074,43.726 25.000,43.177 25.000 C 42.632 25.000,42.140 24.925,42.083 24.833 C 42.027 24.742,41.539 24.667,41.000 24.667 C 40.461 24.667,39.973 24.592,39.917 24.500 C 39.860 24.408,39.373 24.333,38.833 24.333 C 38.294 24.333,37.807 24.258,37.750 24.167 C 37.693 24.075,37.393 24.000,37.082 24.000 C 36.771 24.000,36.084 23.887,35.556 23.750 C 35.029 23.612,34.312 23.500,33.965 23.500 C 33.618 23.500,33.333 23.425,33.333 23.333 C 33.333 23.242,32.996 23.167,32.583 23.167 C 32.171 23.167,31.833 23.092,31.833 23.000 C 31.833 22.908,31.533 22.833,31.167 22.833 C 30.800 22.833,30.500 22.758,30.500 22.667 C 30.500 22.575,30.274 22.500,29.998 22.500 C 29.721 22.500,29.365 22.430,29.206 22.344 C 29.047 22.258,28.523 22.020,28.042 21.814 C 27.560 21.609,27.168 21.398,27.170 21.345 C 27.177 21.168,28.468 20.333,28.735 20.333 C 28.881 20.333,29.000 20.277,29.000 20.207 C 29.000 20.138,29.244 19.983,29.542 19.863 C 29.840 19.743,30.214 19.575,30.373 19.489 C 30.532 19.403,30.776 19.333,30.914 19.333 C 31.053 19.333,31.167 19.258,31.167 19.167 C 31.167 19.075,31.352 19.000,31.578 19.000 C 31.803 19.000,32.310 18.898,32.703 18.774 C 33.095 18.650,33.754 18.455,34.167 18.341 C 34.579 18.227,35.047 18.066,35.206 17.984 C 35.365 17.901,35.721 17.833,35.998 17.833 C 36.274 17.833,36.500 17.758,36.500 17.667 C 36.500 17.575,36.762 17.500,37.083 17.500 C 37.404 17.500,37.667 17.425,37.667 17.333 C 37.667 17.242,37.992 17.167,38.389 17.167 C 38.786 17.167,39.167 17.110,39.235 17.042 C 39.304 16.973,39.860 16.828,40.471 16.720 C 42.030 16.444,42.533 16.330,42.917 16.164 C 43.100 16.084,43.569 15.977,43.958 15.926 C 45.567 15.715,46.007 15.624,46.094 15.482 C 46.145 15.400,46.579 15.333,47.060 15.333 C 47.540 15.333,48.005 15.265,48.092 15.181 C 48.249 15.029,49.236 14.907,51.708 14.732 C 52.812 14.655,53.000 14.680,53.000 14.904 C 53.000 15.048,52.925 15.167,52.833 15.167 C 52.742 15.167,52.667 15.279,52.667 15.417 C 52.667 15.554,52.597 15.667,52.512 15.667 C 52.427 15.667,52.225 15.967,52.063 16.333 C 51.902 16.700,51.709 17.000,51.635 17.000 C 51.561 17.000,51.500 17.183,51.500 17.407 C 51.500 17.631,51.425 17.860,51.333 17.917 C 51.242 17.973,51.167 18.198,51.167 18.417 C 51.167 18.635,51.242 18.860,51.333 18.917 C 51.425 18.973,51.500 19.206,51.500 19.433 C 51.500 20.516,54.544 21.705,55.083 20.833 C 55.140 20.742,55.323 20.667,55.490 20.667 C 55.657 20.667,56.102 20.367,56.480 20.000 C 56.858 19.633,57.204 19.333,57.250 19.333 C 57.394 19.333,57.340 19.976,57.189 20.070 C 57.057 20.151,56.975 20.555,56.718 22.392 C 56.623 23.074,56.950 24.950,57.190 25.098 C 57.269 25.147,57.333 25.297,57.333 25.432 C 57.333 25.936,58.861 27.167,59.488 27.167 C 59.667 27.167,59.860 27.242,59.917 27.333 C 59.973 27.425,60.315 27.500,60.677 27.500 C 61.038 27.500,61.333 27.425,61.333 27.333 C 61.333 27.242,61.746 27.167,62.250 27.167 C 62.754 27.167,63.167 27.092,63.167 27.000 C 63.167 26.908,63.425 26.833,63.740 26.833 C 64.056 26.833,64.360 26.758,64.417 26.667 C 64.473 26.575,64.698 26.500,64.917 26.500 C 65.135 26.500,65.360 26.425,65.417 26.333 C 65.473 26.242,65.703 26.167,65.927 26.167 C 66.150 26.167,66.333 26.100,66.333 26.019 C 66.333 25.938,66.671 25.821,67.083 25.759 C 67.496 25.697,67.833 25.576,67.833 25.490 C 67.833 25.404,68.058 25.333,68.333 25.333 C 68.608 25.333,68.833 25.258,68.833 25.167 C 68.833 25.075,68.979 25.000,69.157 25.000 C 69.335 25.000,69.527 24.925,69.583 24.833 C 69.640 24.742,69.832 24.667,70.010 24.667 C 70.188 24.667,70.333 24.592,70.333 24.500 C 70.333 24.408,70.516 24.333,70.740 24.333 C 70.964 24.333,71.193 24.258,71.250 24.167 C 71.307 24.075,71.536 24.000,71.760 24.000 C 71.984 24.000,72.167 23.925,72.167 23.833 C 72.167 23.742,72.317 23.667,72.500 23.667 C 72.683 23.667,72.833 23.600,72.833 23.519 C 72.833 23.437,73.105 23.319,73.437 23.257 C 73.769 23.195,74.163 23.082,74.312 23.007 C 74.461 22.931,74.958 22.703,75.417 22.500 C 75.875 22.297,76.380 22.063,76.539 21.982 C 76.699 21.900,76.984 21.833,77.174 21.833 C 77.364 21.833,77.473 21.758,77.417 21.667 C 77.329 21.524,77.544 21.461,77.940 21.514 C 77.998 21.522,78.092 21.465,78.148 21.389 C 78.204 21.312,78.700 21.110,79.250 20.941 C 79.800 20.772,80.380 20.566,80.539 20.483 C 80.699 20.401,80.942 20.333,81.081 20.333 C 81.220 20.333,81.333 20.258,81.333 20.167 C 81.333 20.075,81.521 20.000,81.750 20.000 C 81.979 20.000,82.167 19.925,82.167 19.833 C 82.167 19.742,82.359 19.667,82.593 19.667 C 82.835 19.667,82.975 19.595,82.917 19.500 C 82.858 19.405,82.998 19.333,83.240 19.333 C 83.475 19.333,83.667 19.258,83.667 19.167 C 83.667 19.075,83.835 18.999,84.042 18.999 C 84.435 18.998,87.091 18.131,87.280 17.942 C 87.340 17.882,87.559 17.833,87.768 17.833 C 87.976 17.833,88.193 17.758,88.250 17.667 C 88.307 17.575,88.532 17.500,88.750 17.500 C 88.968 17.500,89.193 17.425,89.250 17.333 C 89.307 17.242,89.532 17.167,89.750 17.167 C 89.968 17.167,90.188 17.100,90.238 17.019 C 90.288 16.938,90.686 16.818,91.123 16.753 C 91.559 16.687,92.048 16.564,92.208 16.478 C 92.391 16.380,92.500 16.381,92.500 16.480 C 92.500 16.568,92.442 16.664,92.372 16.694 C 92.302 16.725,91.946 17.125,91.580 17.583 C 90.927 18.404,90.615 18.723,89.431 19.787 C 89.102 20.082,88.833 20.400,88.833 20.495 C 88.833 20.589,88.731 20.667,88.605 20.667 C 88.480 20.667,87.793 21.229,87.078 21.917 C 86.363 22.604,85.725 23.167,85.659 23.167 C 85.594 23.167,85.043 23.654,84.435 24.250 C 83.828 24.846,83.256 25.333,83.165 25.333 C 83.074 25.333,83.000 25.408,83.000 25.500 C 83.000 25.592,82.915 25.667,82.810 25.667 C 82.636 25.667,82.071 26.128,80.488 27.564 C 80.160 27.862,79.602 28.325,79.247 28.594 C 78.892 28.863,78.072 29.608,77.425 30.250 C 76.777 30.892,76.196 31.417,76.132 31.417 C 75.951 31.417,71.494 35.840,70.750 36.759 C 70.383 37.211,69.843 37.838,69.549 38.151 C 69.255 38.465,69.044 38.770,69.080 38.829 C 69.117 38.888,68.971 39.068,68.755 39.230 C 68.540 39.391,68.273 39.743,68.162 40.012 C 68.051 40.280,67.894 40.500,67.813 40.500 C 67.733 40.500,67.667 40.616,67.667 40.757 C 67.667 40.898,67.517 41.175,67.333 41.372 C 67.150 41.569,67.000 41.865,67.000 42.031 C 67.000 42.197,66.944 42.334,66.875 42.334 C 66.237 42.338,65.651 47.044,66.154 48.118 C 66.743 49.376,67.034 49.867,67.375 50.184 C 67.535 50.334,67.667 50.533,67.667 50.627 C 67.667 50.858,69.346 52.333,69.609 52.333 C 69.724 52.333,70.006 52.521,70.235 52.750 C 70.464 52.979,70.696 53.167,70.749 53.167 C 70.803 53.167,71.008 53.317,71.205 53.500 C 71.402 53.683,71.736 53.833,71.948 53.833 C 72.160 53.833,72.333 53.891,72.333 53.962 C 72.333 54.368,76.848 54.683,77.933 54.353 C 78.199 54.272,78.754 54.113,79.167 54.000 C 79.939 53.789,80.533 53.571,81.039 53.314 C 81.199 53.233,81.442 53.167,81.581 53.167 C 81.720 53.167,81.833 53.092,81.833 53.000 C 81.833 52.908,81.983 52.833,82.167 52.833 C 82.350 52.833,82.500 52.758,82.500 52.667 C 82.500 52.575,82.636 52.500,82.801 52.500 C 82.967 52.500,83.249 52.390,83.426 52.255 C 83.604 52.121,83.881 52.008,84.042 52.005 C 84.202 52.002,84.333 51.925,84.333 51.833 C 84.333 51.742,84.483 51.667,84.667 51.667 C 84.850 51.667,85.000 51.592,85.000 51.500 C 85.000 51.408,85.098 51.333,85.219 51.333 C 85.339 51.333,85.598 51.183,85.795 51.000 C 85.992 50.817,86.231 50.667,86.326 50.667 C 86.422 50.667,86.500 50.592,86.500 50.500 C 86.500 50.408,86.646 50.333,86.823 50.333 C 87.001 50.333,87.192 50.260,87.247 50.171 C 87.302 50.082,87.597 49.891,87.901 49.746 C 88.206 49.602,88.596 49.356,88.769 49.200 C 88.942 49.044,89.290 48.810,89.542 48.680 C 89.794 48.550,90.000 48.381,90.000 48.305 C 90.000 48.229,90.112 48.167,90.250 48.167 C 90.388 48.167,90.500 48.106,90.500 48.031 C 90.500 47.956,90.757 47.772,91.071 47.623 C 91.601 47.370,92.090 46.991,93.112 46.042 C 93.334 45.835,93.592 45.667,93.685 45.667 C 93.884 45.667,94.960 44.888,95.353 44.460 C 95.501 44.299,95.689 44.166,95.770 44.166 C 95.850 44.166,96.179 43.941,96.500 43.667 C 96.821 43.392,97.137 43.167,97.203 43.167 C 97.268 43.167,97.585 42.904,97.906 42.583 C 98.226 42.262,98.566 42.000,98.661 42.000 C 98.756 42.000,98.833 41.925,98.833 41.833 C 98.833 41.742,98.912 41.667,99.009 41.667 C 99.106 41.667,99.424 41.442,99.717 41.167 C 100.010 40.893,100.304 40.668,100.369 40.667 C 100.435 40.667,100.751 40.404,101.072 40.083 C 101.393 39.763,101.695 39.500,101.743 39.500 C 101.791 39.500,102.000 39.355,102.207 39.177 C 102.414 38.999,102.764 38.699,102.984 38.510 C 103.204 38.321,103.436 38.167,103.499 38.167 C 103.562 38.167,103.907 37.883,104.265 37.535 C 104.623 37.188,105.179 36.720,105.500 36.496 C 106.294 35.941,106.616 35.675,107.266 35.042 C 107.572 34.744,107.928 34.500,108.057 34.500 C 108.187 34.500,108.389 34.384,108.506 34.242 C 108.624 34.100,108.952 33.826,109.235 33.632 C 109.518 33.438,109.656 33.382,109.542 33.506 C 109.427 33.631,109.333 33.868,109.333 34.033 C 109.333 34.198,109.258 34.333,109.167 34.333 C 109.075 34.333,109.000 34.434,109.000 34.558 C 109.000 34.681,108.850 34.917,108.667 35.083 C 108.483 35.249,108.333 35.480,108.333 35.595 C 108.333 35.711,108.264 35.831,108.179 35.861 C 108.094 35.892,108.001 36.026,107.971 36.161 C 107.941 36.295,107.748 36.594,107.542 36.825 C 107.335 37.057,107.167 37.307,107.167 37.380 C 107.167 37.454,107.017 37.675,106.833 37.872 C 106.650 38.069,106.500 38.328,106.500 38.448 C 106.500 38.568,106.434 38.667,106.354 38.667 C 106.273 38.667,106.114 38.892,106.000 39.167 C 105.886 39.442,105.727 39.667,105.646 39.667 C 105.566 39.667,105.500 39.747,105.500 39.845 C 105.500 39.943,105.406 40.128,105.292 40.256 C 104.791 40.814,104.667 40.997,104.667 41.176 C 104.667 41.281,104.460 41.565,104.208 41.808 C 103.956 42.051,103.638 42.475,103.500 42.750 C 103.363 43.025,103.211 43.288,103.163 43.333 C 102.920 43.565,102.500 44.353,102.500 44.577 C 102.500 44.718,102.425 44.833,102.333 44.833 C 102.242 44.833,102.167 44.983,102.167 45.167 C 102.167 45.350,102.092 45.500,102.000 45.500 C 101.908 45.500,101.833 45.650,101.833 45.833 C 101.833 46.017,101.777 46.167,101.708 46.168 C 101.507 46.170,101.167 47.027,101.167 47.533 C 101.167 47.790,101.092 48.000,101.000 48.000 C 100.908 48.000,100.833 48.258,100.833 48.573 C 100.833 48.889,100.908 49.193,101.000 49.250 C 101.092 49.307,101.167 49.607,101.167 49.917 C 101.167 50.227,101.242 50.527,101.333 50.583 C 101.425 50.640,101.500 50.832,101.500 51.010 C 101.500 51.188,101.575 51.333,101.667 51.333 C 101.758 51.333,101.833 51.408,101.833 51.498 C 101.833 51.931,103.356 53.987,103.942 54.344 C 104.295 54.560,104.608 54.795,104.639 54.868 C 104.669 54.941,104.876 55.000,105.097 55.000 C 105.319 55.000,105.500 55.075,105.500 55.167 C 105.500 55.258,105.646 55.333,105.823 55.333 C 106.001 55.333,106.193 55.408,106.250 55.500 C 106.307 55.592,106.530 55.667,106.746 55.667 C 106.962 55.667,107.167 55.750,107.201 55.853 C 107.289 56.116,112.417 56.110,112.735 55.846 C 112.913 55.698,112.988 55.703,113.054 55.868 C 113.120 56.033,113.143 56.034,113.154 55.875 C 113.162 55.743,113.428 55.667,113.883 55.667 C 114.277 55.667,114.672 55.594,114.761 55.506 C 114.850 55.417,115.165 55.326,115.461 55.303 C 115.757 55.281,116.000 55.203,116.000 55.131 C 116.000 55.059,116.258 55.000,116.573 55.000 C 116.889 55.000,117.187 54.935,117.236 54.855 C 117.286 54.776,117.636 54.661,118.014 54.600 C 118.393 54.540,119.009 54.342,119.383 54.162 C 119.757 53.981,120.161 53.833,120.281 53.833 C 120.402 53.833,120.500 53.758,120.500 53.667 C 120.500 53.575,120.688 53.500,120.917 53.500 C 121.146 53.500,121.333 53.443,121.333 53.374 C 121.333 53.305,121.577 53.142,121.875 53.012 C 122.173 52.883,122.454 52.733,122.500 52.680 C 122.546 52.627,123.033 52.358,123.583 52.083 C 124.133 51.808,124.608 51.527,124.639 51.458 C 124.669 51.390,124.801 51.333,124.931 51.333 C 125.060 51.333,125.167 51.258,125.167 51.167 C 125.167 51.075,125.279 51.000,125.417 51.000 C 125.554 51.000,125.667 50.925,125.667 50.833 C 125.667 50.742,125.817 50.667,126.000 50.667 C 126.183 50.667,126.333 50.603,126.333 50.526 C 126.333 50.449,126.596 50.244,126.917 50.072 C 127.237 49.899,127.500 49.705,127.500 49.640 C 127.500 49.575,127.650 49.475,127.832 49.417 C 128.015 49.359,128.261 49.223,128.378 49.114 C 128.888 48.642,129.993 47.833,130.127 47.833 C 130.208 47.833,130.626 47.496,131.056 47.083 C 131.487 46.671,131.879 46.333,131.927 46.333 C 131.976 46.333,132.185 46.165,132.392 45.958 C 132.600 45.752,133.059 45.358,133.413 45.083 C 134.233 44.446,135.606 43.074,136.250 42.248 C 136.525 41.896,136.844 41.514,136.958 41.399 C 137.073 41.284,137.167 41.073,137.167 40.929 C 137.167 40.785,137.242 40.667,137.333 40.667 C 137.598 40.667,137.536 38.846,137.262 38.571 C 136.984 38.294,134.833 38.231,134.833 38.500 C 134.833 38.592,134.608 38.667,134.333 38.667 C 134.058 38.667,133.833 38.724,133.833 38.794 C 133.833 38.949,132.596 39.500,132.249 39.500 C 132.112 39.500,132.000 39.575,132.000 39.667 C 132.000 39.758,131.898 39.833,131.772 39.833 C 131.411 39.833,129.833 40.529,129.833 40.689 C 129.833 40.768,129.661 40.833,129.450 40.833 C 129.239 40.833,128.995 40.902,128.908 40.986 C 128.688 41.197,126.980 42.165,126.625 42.279 C 126.465 42.330,126.333 42.438,126.333 42.519 C 126.333 42.600,126.183 42.667,126.000 42.667 C 125.817 42.667,125.667 42.742,125.667 42.833 C 125.667 42.925,125.554 43.000,125.417 43.000 C 125.279 43.000,125.167 43.075,125.167 43.167 C 125.167 43.258,125.016 43.333,124.831 43.333 C 124.646 43.333,124.365 43.397,124.206 43.475 C 123.505 43.820,122.704 44.158,122.125 44.355 C 121.781 44.471,121.500 44.627,121.500 44.700 C 121.500 44.773,121.317 44.833,121.093 44.833 C 120.869 44.833,120.640 44.908,120.583 45.000 C 120.527 45.092,120.335 45.167,120.157 45.167 C 119.979 45.167,119.833 45.242,119.833 45.333 C 119.833 45.425,119.652 45.500,119.431 45.500 C 119.209 45.500,118.999 45.585,118.965 45.689 C 118.858 46.010,115.763 45.954,115.435 45.625 C 115.142 45.333,115.070 44.185,115.314 43.706 C 115.395 43.547,115.677 42.967,115.939 42.417 C 116.202 41.867,116.473 41.392,116.542 41.361 C 116.610 41.331,116.667 41.199,116.667 41.069 C 116.667 40.940,116.729 40.833,116.805 40.833 C 116.881 40.833,117.050 40.627,117.180 40.375 C 117.310 40.123,117.585 39.745,117.792 39.534 C 117.998 39.324,118.167 39.096,118.167 39.027 C 118.167 38.959,118.467 38.572,118.833 38.167 C 119.200 37.762,119.500 37.383,119.500 37.325 C 119.500 37.267,119.837 36.862,120.250 36.426 C 120.662 35.989,121.002 35.546,121.005 35.441 C 121.007 35.336,121.348 34.954,121.762 34.592 C 122.175 34.230,122.675 33.667,122.872 33.342 C 123.069 33.016,123.455 32.563,123.729 32.333 C 124.003 32.104,124.383 31.733,124.572 31.508 C 125.195 30.770,126.227 29.658,127.805 28.026 C 128.660 27.141,129.710 26.013,130.138 25.520 C 130.566 25.028,131.648 23.884,132.542 22.980 C 133.435 22.076,134.167 21.282,134.167 21.215 C 134.167 21.149,134.317 20.942,134.500 20.756 C 135.776 19.456,136.670 18.418,136.762 18.129 C 136.832 17.908,136.911 17.856,136.988 17.981 C 137.064 18.104,137.193 18.007,137.345 17.712 C 137.476 17.458,137.902 16.960,138.292 16.605 C 138.681 16.250,139.000 15.836,139.000 15.684 C 139.000 15.531,139.150 15.299,139.333 15.167 C 139.517 15.035,139.667 14.811,139.667 14.670 C 139.667 14.529,139.817 14.320,140.000 14.205 C 140.188 14.088,140.333 13.817,140.333 13.582 C 140.333 13.354,140.408 13.167,140.500 13.167 C 140.592 13.167,140.667 12.979,140.667 12.750 C 140.667 12.521,140.742 12.333,140.833 12.333 C 141.357 12.333,140.520 10.512,139.550 9.542 C 139.161 9.152,138.765 8.833,138.671 8.833 C 138.577 8.833,138.500 8.776,138.500 8.706 C 138.500 8.579,138.006 8.278,137.458 8.071 C 137.298 8.011,137.167 7.895,137.167 7.814 C 137.167 7.733,137.017 7.667,136.833 7.667 C 136.650 7.667,136.500 7.592,136.500 7.500 C 136.500 7.408,136.354 7.333,136.177 7.333 C 135.999 7.333,135.807 7.258,135.750 7.167 C 135.615 6.947,133.167 6.947,133.167 7.167 C 133.167 7.258,132.979 7.333,132.750 7.333 C 132.521 7.333,132.333 7.408,132.333 7.500 C 132.333 7.592,132.247 7.667,132.141 7.667 C 132.035 7.667,131.716 7.841,131.432 8.055 C 131.149 8.268,130.673 8.549,130.375 8.679 C 130.077 8.809,129.833 8.971,129.833 9.041 C 129.833 9.110,129.700 9.167,129.537 9.167 C 129.374 9.167,129.132 9.317,129.000 9.500 C 128.868 9.683,128.626 9.833,128.463 9.833 C 128.300 9.833,128.167 9.908,128.167 10.000 C 128.167 10.092,128.091 10.167,127.998 10.167 C 127.906 10.167,127.456 10.429,127.000 10.750 C 126.544 11.071,126.122 11.333,126.063 11.333 C 126.004 11.333,125.834 11.465,125.686 11.625 C 125.538 11.785,125.079 12.097,124.667 12.316 C 124.254 12.536,123.798 12.818,123.654 12.941 C 123.509 13.065,123.330 13.167,123.256 13.167 C 123.183 13.167,123.001 13.298,122.853 13.459 C 122.705 13.621,122.377 13.858,122.125 13.988 C 121.873 14.117,121.667 14.285,121.667 14.361 C 121.667 14.438,121.586 14.500,121.488 14.500 C 121.390 14.500,121.205 14.594,121.077 14.708 C 120.662 15.081,120.424 15.246,119.958 15.486 C 119.706 15.617,119.500 15.785,119.500 15.861 C 119.500 15.938,119.404 16.000,119.287 16.000 C 119.170 16.000,118.965 16.150,118.833 16.333 C 118.701 16.517,118.466 16.667,118.310 16.667 C 118.155 16.667,118.003 16.730,117.972 16.808 C 117.942 16.885,117.523 17.230,117.042 17.573 C 116.560 17.917,116.167 18.266,116.167 18.349 C 116.167 18.432,116.033 18.500,115.870 18.500 C 115.707 18.500,115.465 18.650,115.333 18.833 C 115.201 19.017,115.020 19.167,114.930 19.167 C 114.689 19.167,113.481 20.016,112.975 20.542 C 112.732 20.794,112.491 21.000,112.441 21.000 C 112.254 21.000,110.758 22.039,109.323 23.167 C 108.798 23.579,108.160 24.067,107.907 24.250 C 107.653 24.433,107.350 24.677,107.234 24.792 C 107.119 24.906,106.943 25.000,106.845 25.000 C 106.747 25.000,106.667 25.075,106.667 25.167 C 106.667 25.258,106.554 25.333,106.417 25.333 C 106.279 25.333,106.167 25.392,106.167 25.464 C 106.167 25.536,105.959 25.717,105.706 25.867 C 105.452 26.017,105.003 26.371,104.707 26.653 C 104.412 26.936,104.113 27.167,104.043 27.167 C 103.974 27.167,103.654 27.393,103.333 27.668 C 103.013 27.943,102.619 28.210,102.458 28.262 C 102.298 28.314,102.167 28.421,102.167 28.500 C 102.167 28.579,102.020 28.691,101.842 28.747 C 101.663 28.804,101.300 29.053,101.034 29.300 C 100.501 29.798,100.182 30.035,98.833 30.941 C 98.329 31.279,97.795 31.693,97.647 31.861 C 97.499 32.029,97.274 32.170,97.147 32.175 C 97.020 32.179,96.617 32.479,96.250 32.842 C 95.883 33.204,95.452 33.543,95.292 33.595 C 95.131 33.647,95.000 33.759,95.000 33.845 C 95.000 33.930,94.856 34.000,94.681 34.000 C 94.505 34.000,94.336 34.061,94.306 34.135 C 94.275 34.210,93.747 34.621,93.132 35.048 C 92.035 35.810,91.514 36.210,91.077 36.625 C 90.956 36.740,90.776 36.833,90.676 36.833 C 90.519 36.833,88.791 37.999,88.215 38.494 C 88.105 38.589,87.954 38.667,87.880 38.667 C 87.807 38.667,87.447 38.928,87.082 39.247 C 86.716 39.566,86.323 39.828,86.208 39.830 C 86.094 39.832,86.000 39.894,86.000 39.969 C 86.000 40.043,85.737 40.207,85.417 40.333 C 85.096 40.459,84.833 40.623,84.833 40.698 C 84.833 40.772,84.721 40.833,84.583 40.833 C 84.446 40.833,84.333 40.908,84.333 41.000 C 84.333 41.092,84.221 41.167,84.083 41.167 C 83.946 41.167,83.832 41.223,83.831 41.292 C 83.826 41.630,82.499 42.053,82.064 41.855 C 81.619 41.652,81.575 40.674,82.004 40.528 C 82.093 40.497,82.167 40.368,82.167 40.240 C 82.167 40.112,82.579 39.575,83.083 39.046 C 83.587 38.517,84.000 38.021,84.000 37.942 C 84.000 37.792,84.367 37.437,85.920 36.083 C 86.446 35.625,87.335 34.812,87.896 34.276 C 88.458 33.740,89.142 33.145,89.417 32.954 C 89.692 32.762,90.456 32.057,91.115 31.386 C 91.774 30.715,92.382 30.167,92.467 30.167 C 92.552 30.167,93.102 29.698,93.689 29.125 C 94.277 28.552,95.129 27.783,95.583 27.417 C 96.038 27.050,96.905 26.262,97.511 25.667 C 98.117 25.071,98.968 24.283,99.402 23.917 C 100.469 23.014,105.167 18.303,105.167 18.135 C 105.167 18.061,105.654 17.516,106.250 16.923 C 106.846 16.330,107.333 15.760,107.333 15.656 C 107.333 15.552,107.558 15.257,107.833 15.000 C 108.108 14.743,108.333 14.451,108.333 14.350 C 108.333 14.249,108.397 14.167,108.475 14.167 C 108.552 14.167,108.751 13.867,108.917 13.500 C 109.082 13.133,109.281 12.833,109.359 12.833 C 109.436 12.833,109.500 12.683,109.500 12.500 C 109.500 12.317,109.575 12.167,109.667 12.167 C 109.758 12.167,109.833 12.053,109.833 11.914 C 109.833 11.776,109.908 11.513,110.000 11.331 C 110.092 11.149,110.242 10.851,110.333 10.669 C 110.540 10.259,110.554 7.102,110.352 6.706 C 110.270 6.547,110.033 6.060,109.825 5.625 C 109.618 5.190,109.384 4.833,109.307 4.833 C 109.230 4.833,109.166 4.702,109.166 4.542 C 109.164 4.170,107.885 2.667,107.570 2.667 C 107.440 2.667,107.333 2.592,107.333 2.500 C 107.333 2.408,107.150 2.333,106.927 2.333 C 106.703 2.333,106.473 2.258,106.417 2.167 C 106.360 2.075,106.071 2.000,105.773 2.000 C 105.476 2.000,105.162 1.929,105.075 1.842 C 104.904 1.672,99.326 1.500,97.417 1.606 M193.375 4.618 C 193.052 5.313,193.072 54.429,193.395 54.752 C 193.770 55.127,211.980 55.538,211.750 55.167 C 211.689 55.068,211.884 55.000,212.230 55.000 C 212.551 55.000,212.853 55.064,212.902 55.143 C 212.951 55.222,215.562 55.301,218.704 55.320 C 222.005 55.339,224.484 55.419,224.575 55.510 C 224.790 55.723,232.955 55.718,233.028 55.504 C 233.062 55.404,234.954 55.336,237.962 55.328 C 240.973 55.320,242.804 55.254,242.744 55.157 C 242.690 55.070,242.928 54.998,243.282 54.995 C 244.665 54.983,245.003 54.237,244.992 51.217 C 244.986 49.483,244.727 46.438,244.510 45.542 C 244.505 45.519,244.290 45.500,244.033 45.500 C 243.777 45.500,243.495 45.430,243.408 45.345 C 243.318 45.255,239.768 45.149,235.083 45.095 C 219.134 44.910,214.080 44.820,213.833 44.717 C 213.696 44.659,213.527 44.596,213.458 44.577 C 213.390 44.558,211.721 44.532,209.750 44.521 L 206.167 44.500 206.167 43.593 C 206.167 43.094,206.242 42.640,206.333 42.583 C 206.425 42.527,206.500 42.227,206.500 41.917 C 206.500 41.607,206.425 41.307,206.333 41.250 C 206.119 41.118,206.116 40.218,206.329 40.086 C 206.525 39.965,206.502 36.355,206.305 36.232 C 206.096 36.103,206.140 35.260,206.367 35.033 C 206.518 34.882,209.129 34.833,217.097 34.833 L 227.628 34.833 227.728 34.458 C 227.860 33.967,227.864 25.273,227.732 24.930 C 227.641 24.693,226.480 24.667,216.316 24.667 L 205.000 24.667 205.000 23.117 C 205.000 22.264,205.069 21.495,205.154 21.408 C 205.239 21.321,205.349 20.350,205.399 19.250 C 205.568 15.548,205.613 15.335,206.224 15.322 C 206.513 15.315,208.974 15.320,211.692 15.331 C 215.011 15.346,216.671 15.295,216.744 15.176 C 216.818 15.057,219.252 15.000,224.333 15.000 C 229.140 15.000,231.850 14.940,231.917 14.833 C 231.982 14.728,234.081 14.667,237.663 14.667 C 240.767 14.667,243.425 14.621,243.570 14.566 C 243.914 14.433,243.975 4.708,243.633 4.367 C 243.480 4.213,237.674 4.167,218.508 4.168 L 193.583 4.169 193.375 4.618 M135.167 4.706 C 135.167 4.776,135.035 4.833,134.873 4.833 C 134.285 4.833,134.111 5.460,134.572 5.920 C 135.067 6.416,135.167 6.432,135.167 6.019 C 135.167 5.676,135.592 5.506,136.458 5.502 C 136.756 5.501,137.000 5.425,137.000 5.333 C 137.000 5.242,136.881 5.167,136.736 5.167 C 136.591 5.167,136.503 5.073,136.542 4.958 C 136.580 4.844,136.692 4.750,136.792 4.750 C 136.891 4.750,137.011 4.711,137.058 4.664 C 137.106 4.617,136.699 4.578,136.156 4.578 C 135.612 4.578,135.167 4.635,135.167 4.706 M304.833 5.929 C 304.604 5.966,303.779 6.084,303.000 6.190 C 302.221 6.296,301.512 6.447,301.425 6.525 C 301.338 6.603,301.057 6.667,300.800 6.667 C 300.543 6.667,300.333 6.742,300.333 6.833 C 300.333 6.925,300.113 7.000,299.843 7.000 C 299.574 7.000,299.307 7.075,299.250 7.167 C 299.193 7.258,298.964 7.333,298.740 7.333 C 298.516 7.333,298.333 7.408,298.333 7.500 C 298.333 7.592,298.108 7.667,297.833 7.667 C 297.558 7.667,297.333 7.742,297.333 7.833 C 297.333 7.925,297.223 8.000,297.089 8.000 C 296.788 8.000,295.604 8.537,295.528 8.708 C 295.497 8.777,295.253 8.833,294.986 8.833 C 294.719 8.833,294.500 8.908,294.500 9.000 C 294.500 9.092,294.354 9.167,294.177 9.167 C 293.999 9.167,293.807 9.242,293.750 9.333 C 293.693 9.425,293.501 9.500,293.323 9.500 C 293.146 9.500,293.000 9.575,293.000 9.667 C 293.000 9.758,292.850 9.833,292.667 9.833 C 292.483 9.833,292.333 9.908,292.333 10.000 C 292.333 10.092,292.210 10.167,292.058 10.167 C 291.782 10.167,289.989 10.977,289.833 11.172 C 289.787 11.230,289.506 11.383,289.208 11.512 C 288.910 11.642,288.667 11.805,288.667 11.874 C 288.667 11.943,288.517 12.000,288.333 12.000 C 288.150 12.000,288.000 12.075,288.000 12.167 C 288.000 12.258,287.882 12.333,287.738 12.333 C 287.449 12.333,285.949 13.161,285.861 13.369 C 285.831 13.441,285.662 13.500,285.486 13.500 C 285.310 13.500,285.167 13.575,285.167 13.667 C 285.167 13.758,285.089 13.833,284.993 13.833 C 284.898 13.833,284.663 13.979,284.471 14.158 C 284.279 14.337,283.701 14.692,283.186 14.947 C 282.671 15.203,282.129 15.544,281.980 15.706 C 281.832 15.868,281.605 16.000,281.476 16.000 C 281.346 16.000,281.132 16.150,281.000 16.333 C 280.868 16.517,280.626 16.667,280.463 16.667 C 280.300 16.667,280.165 16.723,280.163 16.792 C 280.161 16.860,279.824 17.142,279.413 17.417 C 279.003 17.692,278.667 17.973,278.667 18.042 C 278.667 18.110,278.565 18.167,278.441 18.167 C 278.317 18.167,277.981 18.392,277.693 18.667 C 277.405 18.942,277.107 19.167,277.031 19.167 C 276.955 19.167,276.541 19.504,276.110 19.917 C 275.680 20.329,275.288 20.667,275.239 20.667 C 275.138 20.667,273.709 22.113,273.333 22.596 C 272.174 24.085,271.454 25.833,272.000 25.833 C 272.092 25.833,272.167 25.951,272.167 26.095 C 272.167 26.611,273.072 27.167,273.914 27.167 C 274.236 27.167,274.500 27.092,274.500 27.000 C 274.500 26.908,274.725 26.833,275.000 26.833 C 275.275 26.833,275.500 26.758,275.500 26.667 C 275.500 26.575,275.688 26.500,275.917 26.500 C 276.146 26.500,276.333 26.443,276.333 26.374 C 276.333 26.305,276.577 26.150,276.875 26.030 C 277.173 25.910,277.529 25.744,277.667 25.661 C 277.804 25.577,278.150 25.391,278.436 25.246 C 278.721 25.102,279.112 24.837,279.304 24.658 C 279.496 24.480,279.717 24.333,279.795 24.333 C 279.873 24.333,280.083 24.202,280.260 24.042 C 280.438 23.881,280.870 23.600,281.220 23.417 C 281.570 23.233,281.982 22.971,282.136 22.833 C 282.290 22.696,282.623 22.477,282.875 22.347 C 283.127 22.217,283.333 22.048,283.333 21.972 C 283.333 21.896,283.412 21.833,283.508 21.833 C 283.603 21.833,283.856 21.659,284.069 21.446 C 284.282 21.233,284.692 20.961,284.978 20.842 C 285.265 20.723,285.500 20.560,285.500 20.480 C 285.500 20.399,285.596 20.333,285.713 20.333 C 285.830 20.333,286.035 20.183,286.167 20.000 C 286.299 19.817,286.524 19.667,286.667 19.667 C 286.810 19.667,287.035 19.517,287.167 19.333 C 287.299 19.150,287.515 19.000,287.646 19.000 C 287.890 19.000,289.038 18.204,289.139 17.965 C 289.169 17.893,289.338 17.833,289.514 17.833 C 289.690 17.833,289.833 17.772,289.833 17.698 C 289.833 17.623,290.096 17.459,290.417 17.333 C 290.737 17.207,291.000 17.051,291.000 16.985 C 291.000 16.920,291.206 16.787,291.458 16.691 C 292.033 16.472,292.899 15.957,292.972 15.792 C 293.003 15.723,293.132 15.667,293.259 15.667 C 293.386 15.667,293.757 15.517,294.083 15.333 C 294.410 15.150,294.818 15.000,294.991 15.000 C 295.164 15.000,295.343 14.906,295.390 14.792 C 295.436 14.677,295.480 14.752,295.487 14.958 C 295.494 15.165,295.425 15.333,295.333 15.333 C 295.242 15.333,295.167 15.432,295.167 15.552 C 295.167 15.672,295.035 15.916,294.875 16.094 C 294.715 16.271,294.385 16.679,294.142 17.000 C 293.899 17.321,293.543 17.749,293.350 17.951 C 293.158 18.154,293.000 18.405,293.000 18.509 C 293.000 18.614,292.775 18.910,292.500 19.167 C 292.225 19.424,292.000 19.716,292.000 19.817 C 292.000 19.918,291.937 20.000,291.860 20.000 C 291.782 20.000,291.576 20.281,291.401 20.625 C 291.226 20.969,290.952 21.348,290.792 21.468 C 290.631 21.588,290.500 21.777,290.500 21.889 C 290.500 22.001,290.350 22.201,290.167 22.333 C 289.983 22.465,289.833 22.701,289.833 22.856 C 289.833 23.012,289.774 23.164,289.702 23.194 C 289.509 23.276,288.667 24.772,288.667 25.035 C 288.667 25.158,288.517 25.368,288.333 25.500 C 288.150 25.632,288.000 25.874,288.000 26.037 C 288.000 26.200,287.925 26.333,287.833 26.333 C 287.742 26.333,287.667 26.446,287.667 26.583 C 287.667 26.721,287.592 26.833,287.500 26.833 C 287.408 26.833,287.333 26.983,287.333 27.167 C 287.333 27.350,287.258 27.500,287.167 27.500 C 287.075 27.500,287.000 27.606,287.000 27.736 C 287.000 27.867,286.875 28.223,286.722 28.528 C 286.206 29.558,286.167 29.661,286.167 29.998 C 286.167 30.182,286.092 30.333,286.000 30.333 C 285.908 30.333,285.833 30.483,285.833 30.667 C 285.833 30.850,285.758 31.000,285.667 31.000 C 285.575 31.000,285.500 31.188,285.500 31.417 C 285.500 31.646,285.425 31.833,285.333 31.833 C 285.242 31.833,285.167 32.058,285.167 32.333 C 285.167 32.608,285.092 32.833,285.000 32.833 C 284.908 32.833,284.833 33.043,284.833 33.300 C 284.833 33.557,284.754 33.846,284.657 33.943 C 284.316 34.284,284.656 39.500,285.018 39.500 C 285.100 39.500,285.167 39.725,285.167 40.000 C 285.167 40.275,285.223 40.501,285.292 40.501 C 285.461 40.503,285.833 41.327,285.833 41.700 C 285.833 41.865,285.908 42.000,286.000 42.000 C 286.092 42.000,286.167 42.077,286.167 42.170 C 286.167 42.583,287.456 44.287,288.549 45.320 C 288.897 45.648,289.550 46.265,290.001 46.692 C 290.452 47.118,291.049 47.568,291.327 47.691 C 291.606 47.814,291.833 47.971,291.833 48.041 C 291.833 48.110,291.946 48.167,292.083 48.167 C 292.221 48.167,292.333 48.242,292.333 48.333 C 292.333 48.425,292.483 48.500,292.667 48.500 C 292.850 48.500,293.000 48.564,293.000 48.642 C 293.000 48.843,295.941 50.333,296.338 50.333 C 296.519 50.333,296.667 50.408,296.667 50.500 C 296.667 50.592,296.817 50.667,297.000 50.667 C 297.183 50.667,297.333 50.742,297.333 50.833 C 297.333 50.925,297.558 51.000,297.833 51.000 C 298.108 51.000,298.333 51.075,298.333 51.167 C 298.333 51.258,298.516 51.333,298.740 51.333 C 298.964 51.333,299.193 51.408,299.250 51.500 C 299.307 51.592,299.537 51.667,299.762 51.667 C 299.987 51.667,300.301 51.732,300.461 51.813 C 301.005 52.088,301.917 52.323,302.875 52.434 C 303.402 52.496,303.833 52.611,303.833 52.690 C 303.833 52.769,304.058 52.833,304.333 52.833 C 304.608 52.833,304.833 52.908,304.833 53.000 C 304.833 53.092,305.204 53.167,305.657 53.167 C 306.110 53.167,306.527 53.242,306.583 53.333 C 306.640 53.425,307.004 53.500,307.393 53.500 C 307.782 53.500,308.171 53.569,308.258 53.653 C 308.345 53.737,308.867 53.844,309.417 53.891 C 309.967 53.938,311.354 54.067,312.500 54.177 C 315.214 54.439,326.055 54.439,330.583 54.177 C 332.508 54.066,335.715 53.940,337.708 53.898 C 339.867 53.852,341.333 53.756,341.333 53.660 C 341.333 53.572,341.483 53.500,341.667 53.500 C 341.850 53.500,342.000 53.425,342.000 53.333 C 342.000 53.242,342.123 53.167,342.273 53.167 C 342.750 53.167,342.989 52.628,342.995 51.542 C 342.998 50.969,342.934 50.500,342.853 50.500 C 342.772 50.500,342.666 50.350,342.618 50.167 C 342.570 49.983,342.412 49.833,342.266 49.833 C 342.120 49.833,342.000 49.758,342.000 49.667 C 342.000 49.575,341.775 49.500,341.500 49.500 C 341.225 49.500,341.000 49.425,341.000 49.333 C 341.000 49.242,340.662 49.167,340.250 49.167 C 339.837 49.167,339.500 49.092,339.500 49.000 C 339.500 48.900,338.844 48.833,337.867 48.833 C 336.968 48.833,336.162 48.767,336.075 48.685 C 335.921 48.540,333.872 48.439,327.083 48.242 C 325.250 48.189,323.150 48.114,322.417 48.077 C 321.683 48.039,318.773 48.007,315.948 48.004 C 312.569 48.001,310.849 47.943,310.917 47.833 C 310.983 47.726,310.280 47.667,308.927 47.667 C 307.642 47.667,306.833 47.602,306.833 47.500 C 306.833 47.408,306.463 47.333,306.010 47.333 C 305.557 47.333,305.140 47.258,305.083 47.167 C 305.027 47.075,304.652 47.000,304.250 47.000 C 303.848 47.000,303.473 46.925,303.417 46.833 C 303.360 46.742,303.130 46.667,302.905 46.667 C 302.680 46.667,302.365 46.598,302.206 46.514 C 302.047 46.430,301.467 46.238,300.917 46.087 C 300.367 45.937,299.786 45.743,299.627 45.657 C 299.468 45.571,299.224 45.500,299.086 45.500 C 298.947 45.500,298.833 45.425,298.833 45.333 C 298.833 45.242,298.690 45.167,298.514 45.167 C 298.338 45.167,298.169 45.108,298.139 45.036 C 298.108 44.963,297.654 44.696,297.128 44.442 C 296.603 44.187,296.130 43.908,296.077 43.823 C 296.024 43.737,295.851 43.667,295.694 43.667 C 295.536 43.667,295.299 43.517,295.167 43.333 C 295.035 43.150,294.868 43.000,294.797 43.000 C 294.592 43.000,293.119 41.476,292.665 40.793 C 292.437 40.450,292.194 40.168,292.125 40.168 C 292.056 40.167,292.000 40.017,292.000 39.833 C 292.000 39.650,291.925 39.500,291.833 39.500 C 291.742 39.500,291.667 39.354,291.667 39.177 C 291.667 38.999,291.592 38.807,291.500 38.750 C 291.408 38.693,291.333 38.464,291.333 38.240 C 291.333 38.016,291.258 37.833,291.167 37.833 C 291.064 37.833,291.000 36.972,291.000 35.583 C 291.000 34.194,291.064 33.333,291.167 33.333 C 291.258 33.333,291.333 33.075,291.333 32.760 C 291.333 32.444,291.408 32.140,291.500 32.083 C 291.592 32.027,291.667 31.797,291.667 31.573 C 291.667 31.350,291.742 31.167,291.833 31.167 C 291.925 31.167,292.000 31.017,292.000 30.833 C 292.000 30.650,292.075 30.500,292.167 30.500 C 292.258 30.500,292.334 30.406,292.334 30.292 C 292.334 30.177,292.522 29.714,292.751 29.263 C 292.979 28.812,293.167 28.344,293.167 28.222 C 293.167 28.100,293.242 28.000,293.333 28.000 C 293.425 28.000,293.500 27.887,293.500 27.750 C 293.500 27.613,293.562 27.500,293.639 27.500 C 293.715 27.500,293.883 27.294,294.014 27.042 C 294.144 26.790,294.371 26.449,294.520 26.284 C 294.668 26.119,294.930 25.707,295.103 25.368 C 295.275 25.029,295.623 24.552,295.875 24.309 C 296.127 24.065,296.333 23.819,296.333 23.762 C 296.333 23.671,297.012 22.870,297.625 22.239 C 297.740 22.120,297.835 21.925,297.837 21.804 C 297.839 21.682,298.151 21.321,298.530 21.000 C 298.909 20.679,299.376 20.238,299.568 20.020 C 300.833 18.582,303.419 16.123,303.067 16.692 C 302.991 16.815,303.022 16.839,303.152 16.759 C 303.264 16.690,303.312 16.590,303.259 16.537 C 303.120 16.398,304.001 15.517,304.227 15.569 C 304.332 15.592,304.361 15.581,304.293 15.543 C 304.073 15.419,304.529 14.780,305.652 13.640 C 306.841 12.433,307.167 12.064,307.167 11.924 C 307.167 11.875,307.426 11.559,307.743 11.223 C 308.060 10.887,308.284 10.556,308.242 10.487 C 308.199 10.418,308.231 10.337,308.312 10.306 C 308.599 10.197,309.333 8.948,309.333 8.570 C 309.333 8.359,309.408 8.140,309.500 8.083 C 309.710 7.953,309.720 7.333,309.512 7.333 C 309.426 7.333,309.333 7.172,309.303 6.975 C 309.174 6.103,306.952 5.582,304.833 5.929 M135.667 6.500 C 135.667 6.592,135.779 6.667,135.917 6.667 C 136.054 6.667,136.167 6.592,136.167 6.500 C 136.167 6.408,136.054 6.333,135.917 6.333 C 135.779 6.333,135.667 6.408,135.667 6.500 M136.333 6.853 C 136.333 6.960,136.506 7.006,136.742 6.961 C 136.974 6.916,137.136 6.958,137.117 7.056 C 137.098 7.152,137.219 7.260,137.386 7.296 C 137.676 7.359,137.676 7.348,137.390 7.014 C 137.077 6.648,136.333 6.535,136.333 6.853 M298.833 26.143 C 298.833 26.329,298.758 26.527,298.667 26.583 C 298.575 26.640,298.501 26.776,298.503 26.885 C 298.504 27.004,298.570 26.984,298.667 26.833 C 298.796 26.633,298.829 26.660,298.831 26.972 C 298.832 27.209,298.915 27.334,299.042 27.292 C 299.160 27.252,299.250 26.946,299.250 26.583 C 299.250 26.220,299.160 25.914,299.042 25.875 C 298.921 25.835,298.833 25.947,298.833 26.143 M137.623 40.722 C 137.430 41.200,137.465 41.602,137.681 41.386 C 137.780 41.286,137.836 41.028,137.804 40.811 C 137.754 40.464,137.732 40.453,137.623 40.722 M281.399 43.250 C 281.399 44.533,281.426 45.036,281.457 44.368 C 281.489 43.699,281.489 42.649,281.457 42.034 C 281.425 41.420,281.399 41.967,281.399 43.250 " stroke="none" fill="#2483c2" fill-rule="evenodd"></path></g></svg>