<?xml version="1.0" encoding="UTF-8"?>
<svg id="Layer_1" data-name="Layer 1" xmlns="http://www.w3.org/2000/svg" viewBox="0 0 1662.09 653.48">
  <defs>
    <style>
      .cls-1 {
        fill: #263da9;
      }

      .cls-1, .cls-2 {
        stroke-width: 0px;
      }

      .cls-2 {
        fill: #bfbfbf;
      }
    </style>
  </defs>
  <path class="cls-1" d="m1459.42.71h-125.43c-90.15,0-163.22,73.08-163.22,163.22h0v448.24c0,22.81,36.54,41.31,81.61,41.31s81.61-18.49,81.61-41.31V161.27c0-9.49,7.7-17.19,17.19-17.19h85.9c38.41,0,69.55,31.14,69.55,69.55v3.11c0,38.41-31.14,69.55-69.55,69.55h-44.59v163.22h66.93c111.93,0,202.66-90.74,202.66-202.66v-43.48c0-111.93-90.74-202.66-202.66-202.66Z"/>
  <path class="cls-1" d="m1047.55,490.26h-181.35c-9.12,0-16.52-7.4-16.52-16.52V41.31h-163.22v448.95h0v5.1h.09c2.63,85.57,71.1,154.54,156.46,157.98v.15h204.54c22.81,0,41.31-36.54,41.31-81.61s-18.49-81.61-41.31-81.61Z"/>
  <path class="cls-1" d="m429.22,41.31v203.82H163.22V41.31H0v570.86C0,634.99,36.54,653.48,81.61,653.48s81.61-18.49,81.61-41.31v-203.82h265.99v203.82c0,22.81,36.54,41.31,81.61,41.31s81.61-18.49,81.61-41.31V41.31h-163.22Z"/>
  <ellipse class="cls-2" cx="81.61" cy="41.31" rx="81.61" ry="41.31"/>
  <ellipse class="cls-2" cx="510.83" cy="41.31" rx="81.61" ry="41.31"/>
  <ellipse class="cls-2" cx="768.07" cy="41.31" rx="81.61" ry="41.31"/>
  <ellipse class="cls-2" cx="1392.49" cy="367.9" rx="41.31" ry="81.61"/>
  <ellipse class="cls-2" cx="1047.55" cy="571.87" rx="41.31" ry="81.61"/>
</svg>